<svg xmlns="http://www.w3.org/2000/svg" viewBox="0 0 195 195"><title>icon_single</title><circle cx="97.5" cy="97.5" r="81.5" style="fill:none;stroke:#000;stroke-miterlimit:10;stroke-width:13px"/><path d="M117.12,58.71a5.17,5.17,0,0,1,3.82,1.39,5.84,5.84,0,0,1,1.39,4.29,18.4,18.4,0,0,1-.69,4.52l-15.17,53.15a4.92,4.92,0,0,0-.23,1.74,3.43,3.43,0,0,0,.93,2.55,13,13,0,0,0,2.78,2,13.38,13.38,0,0,1,2.43,1.74,2.67,2.67,0,0,1,.69,2,4.09,4.09,0,0,1-.12,1.16,3.82,3.82,0,0,1-2.49,2.43,19.78,19.78,0,0,1-6.2.7H69.41a5.69,5.69,0,0,1-3.59-.93,3.08,3.08,0,0,1-1.16-2.55,3.54,3.54,0,0,1,.12-1,3.89,3.89,0,0,1,1.68-2.14A22.8,22.8,0,0,1,70.11,128a19.2,19.2,0,0,0,4.81-2.31,6.63,6.63,0,0,0,2.49-3.82l12-42.62a5.56,5.56,0,0,0,.23-1.74,4.38,4.38,0,0,0-1-3,12.57,12.57,0,0,0-2.9-2.37A18.85,18.85,0,0,1,83.19,70a3,3,0,0,1-.81-2.14,3.75,3.75,0,0,1,.23-1.16,2.79,2.79,0,0,1,1.39-2,11.61,11.61,0,0,1,3.71-1.16l24.44-4.29A27.47,27.47,0,0,1,117.12,58.71Z"/></svg>