<svg xmlns="http://www.w3.org/2000/svg" viewBox="0 0 195 195"><title>icon_baby</title><path d="M72.46,109.58c.27,0,.47,0,.67,0H121c.69,0,.69,0,.69-.69q0-6.29,0-12.58a3.92,3.92,0,0,1,0-.55.47.47,0,0,1,.15-.27s.17.05.24.11c.91.82,1.83,1.63,2.72,2.48s1.83,1.83,2.76,2.73,1.73,1.66,2.59,2.49l2.57,2.49c.71.69,1.42,1.38,2.14,2.06l2.59,2.42a27.2,27.2,0,0,1,2.32,2.21,8.77,8.77,0,0,0,4.32,2.92,8.15,8.15,0,0,0,5.36-.19,6.9,6.9,0,0,0,1.81-.73A9.48,9.48,0,0,0,153,113a14.45,14.45,0,0,0,1.17-1.67,3.83,3.83,0,0,0,.66-1.56c.11-.62.43-1.22.48-1.84a6.34,6.34,0,0,0-.19-2.64,18.94,18.94,0,0,0-.66-2,8.39,8.39,0,0,0-1.74-2.43c-1-1-2-1.85-3-2.78-.84-.78-1.65-1.6-2.49-2.38s-1.95-1.72-2.92-2.59C143.14,92,142,91,140.78,89.89s-2.15-2-3.24-3c-1.4-1.29-2.83-2.55-4.24-3.84s-2.67-2.45-4-3.69l-2.61-2.45c-.65-.62-1.28-1.26-1.95-1.86s-1.4-1.18-2.07-1.8c-.92-.85-1.81-1.74-2.73-2.6a12.81,12.81,0,0,0-1.32-1.11,24.57,24.57,0,0,0-2.15-1.38,9.41,9.41,0,0,0-1.6-.66,9.73,9.73,0,0,0-1.92-.54,21.54,21.54,0,0,0-2.54-.06c-6.49,0-13-.06-19.47,0-3.77,0-7.55-.4-11.3.32a6.84,6.84,0,0,0-1.39.37,15.81,15.81,0,0,0-1.67.89,8.68,8.68,0,0,0-2,1.42c-.75.77-1.53,1.52-2.32,2.25-1.28,1.2-2.6,2.36-3.87,3.57S66.16,77.93,65,79q-2.06,2-4.15,4l-3,2.87L53.44,90c-1.22,1.15-2.43,2.31-3.64,3.46-.75.72-1.52,1.42-2.27,2.15-1,.92-1.89,1.86-2.85,2.78a31.33,31.33,0,0,0-3.32,3.28,9.52,9.52,0,0,0-1.62,3.42,6.81,6.81,0,0,0-.1,2.23,4.74,4.74,0,0,0,.33,2.25c.21.36.18.85.38,1.22a9.26,9.26,0,0,0,1.21,1.76,16.93,16.93,0,0,0,2,1.77,4.24,4.24,0,0,0,1.94.94c.6.1,1.17.42,1.77.49A9.07,9.07,0,0,0,52,115a10.22,10.22,0,0,0,2.34-1.55A22.81,22.81,0,0,0,56,111.8c1.31-1.29,2.65-2.57,4-3.87,1-1,1.91-2,2.88-3s1.83-1.75,2.72-2.65,2-2,3-3,2-2,3-3c.27-.27.57-.51.86-.77l.12.1ZM96.61,66.35c9-.21,15.7-3.73,20.56-10.73a22.89,22.89,0,0,0,4.12-13.44,23.73,23.73,0,0,0-9-18.86,23.24,23.24,0,0,0-15.13-5.38,23.84,23.84,0,0,0-17,6.85,24.3,24.3,0,0,0-6.12,9.68,22.09,22.09,0,0,0-1.25,7.63,24.28,24.28,0,0,0,3.4,12.37,24.8,24.8,0,0,0,6.23,7,24,24,0,0,0,9.45,4.34A40.62,40.62,0,0,0,96.61,66.35Zm-27,52.84c-.15.09-.21.11-.23.15-.55.78-1.08,1.56-1.63,2.33-.38.53-.8,1-1.18,1.57-.71,1-1.4,1.95-2.1,2.92-.34.47-.69.93-1,1.42s-.66,1.12-1,1.65c-.48.7-1,1.37-1.49,2.07s-1.1,1.66-1.66,2.48c-.77,1.13-1.6,2.22-2.33,3.38-.62,1-1.13,2-1.68,3a3.58,3.58,0,0,0-.58,1.76,1.89,1.89,0,0,1-.13.42c0,.15-.13.35-.07.46.32.64.17,1.36.46,2a12.15,12.15,0,0,0,.88,1.8c.73,1.14,1.52,2.24,2.31,3.33s1.76,2.35,2.66,3.51c.54.7,1.13,1.36,1.66,2.06s.95,1.37,1.45,2c.77,1,1.58,2,2.35,3,.55.72,1.06,1.48,1.62,2.19,1,1.25,2,2.48,3,3.73.61.76,1.19,1.55,1.81,2.31.74.91,1.52,1.79,2.27,2.69a9.49,9.49,0,0,0,1,1.26,22.26,22.26,0,0,0,3.88,3,8.61,8.61,0,0,0,3.89,1.2,6,6,0,0,0,3.63-1,6.65,6.65,0,0,0,2.05-1.92A10.74,10.74,0,0,0,90,173a3.87,3.87,0,0,0,.48-1.27,8.64,8.64,0,0,0-.55-4.54c-.34-.7-.59-1.44-.94-2.13-.61-1.18-1.27-2.34-1.91-3.51-.34-.62-.66-1.25-1-1.86-.48-.83-1-1.64-1.47-2.48s-.9-1.7-1.36-2.54-1-1.71-1.47-2.56c-.38-.65-.78-1.29-1.16-1.93-.22-.38-.44-.76-.66-1.15-.32-.58-.63-1.16-1-1.73-.44-.72-.43-.8.2-1.41s.92-1,1.39-1.47c.65-.68,1.31-1.35,2-2s1.56-1.51,2.33-2.28,1.62-1.63,2.41-2.46c.29-.31.54-.65.8-1A52.24,52.24,0,0,1,69.56,119.19Zm36.59,17.47a1.58,1.58,0,0,0,.23.39c1,1,1.92,1.91,2.87,2.88s2.15,2.25,3.23,3.37,1.9,1.91,2.83,2.9a.72.72,0,0,1,.09.62,7.92,7.92,0,0,1-.59,1.1l-1.2,2c-.29.49-.6,1-.88,1.46s-.46.89-.69,1.33c-.13.25-.26.51-.4.75-.28.48-.58,1-.86,1.45s-.49.92-.75,1.37c-.36.64-.74,1.27-1.1,1.91-.46.82-.9,1.65-1.35,2.47-.27.48-.55,1-.83,1.43l-.82,1.39c-.35.59-.74,1.16-1,1.78s-.41,1.28-.7,1.89a5.6,5.6,0,0,0-.57,2.24,6.28,6.28,0,0,0,.6,3.73,7.71,7.71,0,0,0,.77,1.29,8.07,8.07,0,0,0,2.62,2,4,4,0,0,0,2,.55,2.94,2.94,0,0,1,.4,0,6.52,6.52,0,0,0,2.74-.37,5.26,5.26,0,0,0,.84-.36c.76-.48,1.53-.95,2.26-1.49a14.55,14.55,0,0,0,2-1.72c1.1-1.18,2.12-2.44,3.15-3.68.72-.87,1.4-1.78,2.09-2.67s1.35-1.8,2-2.69,1.52-1.92,2.29-2.88c.56-.7,1.13-1.39,1.68-2.1s1.26-1.68,1.89-2.53,1.06-1.49,1.62-2.22,1-1.24,1.51-1.87,1.11-1.49,1.67-2.24c.7-.94,1.4-1.88,2.08-2.84a9.32,9.32,0,0,0,.8-1.31,6.28,6.28,0,0,0,.78-2.26c0-.32.16-.62.21-.94a1.19,1.19,0,0,0-.08-.46c0-.14-.15-.27-.14-.4a5,5,0,0,0-.77-2.29,21.56,21.56,0,0,0-1.47-2.55c-.52-.83-1.08-1.64-1.63-2.44s-1.2-1.71-1.8-2.57l-1.22-1.75L131.7,129c-.56-.83-1.1-1.66-1.67-2.47-.36-.51-.76-1-1.13-1.51s-.77-1.08-1.16-1.63-.92-1.34-1.4-2-1-1.37-1.51-2a.29.29,0,0,0-.28,0q-.66.89-1.29,1.8c-.35.5-.63,1.05-1,1.52-.66.8-1.38,1.55-2.06,2.33s-1.23,1.49-1.91,2.17q-1.63,1.63-3.36,3.16c-1,.88-2,1.71-3.1,2.53-.67.53-1.39,1-2.1,1.48-.32.22-.66.41-1,.62Z" style="fill:#fff"/><path d="M72.46,109.58v-14l-.12-.1c-.29.25-.59.49-.86.77-1,1-2,2-3,3s-2,2-3,3-1.83,1.75-2.72,2.65-1.9,2-2.88,3c-1.3,1.3-2.64,2.58-4,3.87a22.81,22.81,0,0,1-1.61,1.61A10.22,10.22,0,0,1,52,115a9.07,9.07,0,0,1-4.76.81c-.6-.07-1.17-.39-1.77-.49a4.24,4.24,0,0,1-1.94-.94,16.93,16.93,0,0,1-2-1.77,9.26,9.26,0,0,1-1.21-1.76c-.2-.36-.17-.86-.38-1.22a4.74,4.74,0,0,1-.33-2.25,6.81,6.81,0,0,1,.1-2.23,9.52,9.52,0,0,1,1.62-3.42,31.33,31.33,0,0,1,3.32-3.28c1-.92,1.89-1.86,2.85-2.78.75-.72,1.51-1.43,2.27-2.15C51,92.34,52.22,91.17,53.44,90l4.41-4.14,3-2.87q2.08-2,4.15-4c1.15-1.11,2.26-2.25,3.42-3.35S71,73.32,72.3,72.12c.79-.73,1.57-1.48,2.32-2.25a8.68,8.68,0,0,1,2-1.42,15.81,15.81,0,0,1,1.67-.89,6.84,6.84,0,0,1,1.39-.37c3.75-.72,7.53-.27,11.3-.32,6.49-.08,13,0,19.47,0a21.54,21.54,0,0,1,2.54.06,9.73,9.73,0,0,1,1.92.54,9.41,9.41,0,0,1,1.6.66,24.57,24.57,0,0,1,2.15,1.38A12.81,12.81,0,0,1,120,70.61c.92.86,1.8,1.75,2.73,2.6.67.62,1.39,1.19,2.07,1.8s1.3,1.24,1.95,1.86l2.61,2.45q2,1.85,4,3.69c1.41,1.29,2.83,2.55,4.24,3.84,1.09,1,2.15,2,3.24,3s2.36,2.13,3.55,3.19c1,.87,2,1.71,2.92,2.59s1.65,1.6,2.49,2.38c1,.93,2,1.82,3,2.78a8.39,8.39,0,0,1,1.74,2.43,18.94,18.94,0,0,1,.66,2,6.34,6.34,0,0,1,.19,2.64c0,.62-.38,1.22-.48,1.84a3.83,3.83,0,0,1-.66,1.56A14.45,14.45,0,0,1,153,113a9.48,9.48,0,0,1-1.78,1.54,6.9,6.9,0,0,1-1.81.73,8.15,8.15,0,0,1-5.36.19,8.77,8.77,0,0,1-4.32-2.92,27.2,27.2,0,0,0-2.32-2.21l-2.59-2.42c-.72-.68-1.43-1.37-2.14-2.06l-2.57-2.49c-.86-.83-1.74-1.65-2.59-2.49s-1.82-1.84-2.76-2.73-1.81-1.66-2.72-2.48c-.07-.06-.21-.14-.24-.11a.47.47,0,0,0-.15.27,3.92,3.92,0,0,0,0,.55q0,6.29,0,12.58c0,.69,0,.69-.69.69H73.13C72.93,109.63,72.73,109.6,72.46,109.58Z"/><path d="M96.61,66.35a40.62,40.62,0,0,1-4.68-.53,24,24,0,0,1-9.45-4.34,24.8,24.8,0,0,1-6.23-7,24.28,24.28,0,0,1-3.4-12.37,22.09,22.09,0,0,1,1.25-7.63,24.3,24.3,0,0,1,6.12-9.68,23.84,23.84,0,0,1,17-6.85,23.24,23.24,0,0,1,15.13,5.38,23.73,23.73,0,0,1,9,18.86,22.89,22.89,0,0,1-4.12,13.44C112.3,62.62,105.57,66.15,96.61,66.35Z"/><path d="M69.56,119.19a52.24,52.24,0,0,0,18.53,17.46c-.26.32-.51.67-.8,1q-1.19,1.25-2.41,2.46c-.77.77-1.56,1.52-2.33,2.28s-1.32,1.34-2,2c-.47.48-.91,1-1.39,1.47s-.64.69-.2,1.41c.34.56.65,1.15,1,1.73.22.38.43.77.66,1.15.38.65.78,1.28,1.16,1.93.5.85,1,1.7,1.47,2.56s.89,1.7,1.36,2.54,1,1.65,1.47,2.48c.35.61.67,1.24,1,1.86.64,1.17,1.3,2.33,1.91,3.51.35.69.6,1.43.94,2.13a8.64,8.64,0,0,1,.55,4.54A3.87,3.87,0,0,1,90,173a10.74,10.74,0,0,1-.63,1.16A6.65,6.65,0,0,1,87.32,176a6,6,0,0,1-3.63,1,8.61,8.61,0,0,1-3.89-1.2,22.26,22.26,0,0,1-3.88-3,9.49,9.49,0,0,1-1-1.26c-.75-.9-1.53-1.78-2.27-2.69-.62-.76-1.19-1.55-1.81-2.31-1-1.25-2-2.47-3-3.73-.56-.71-1.07-1.47-1.62-2.19-.78-1-1.58-2-2.35-3-.5-.67-.94-1.37-1.45-2s-1.12-1.36-1.66-2.06c-.9-1.16-1.79-2.32-2.66-3.51s-1.59-2.19-2.31-3.33a12.15,12.15,0,0,1-.88-1.8c-.29-.67-.14-1.4-.46-2-.06-.11,0-.31.07-.46a1.89,1.89,0,0,0,.13-.42,3.58,3.58,0,0,1,.58-1.76c.55-1,1.06-2.07,1.68-3,.73-1.16,1.55-2.25,2.33-3.38.56-.82,1.1-1.66,1.66-2.48s1-1.37,1.49-2.07c.36-.54.67-1.11,1-1.65s.67-.95,1-1.42c.7-1,1.39-2,2.1-2.92.39-.53.8-1,1.18-1.57.55-.77,1.09-1.56,1.63-2.33C69.36,119.3,69.41,119.29,69.56,119.19Z"/><path d="M106.16,136.67l2.58-1.7c.33-.21.67-.4,1-.62.71-.48,1.42-1,2.1-1.48,1.05-.82,2.1-1.65,3.1-2.53q1.73-1.53,3.36-3.16c.68-.68,1.27-1.45,1.91-2.17s1.4-1.53,2.06-2.33c.38-.47.67-1,1-1.52s.85-1.21,1.29-1.8a.29.29,0,0,1,.28,0q.77,1,1.51,2c.47.66.93,1.34,1.4,2s.76,1.09,1.16,1.63.77,1,1.13,1.51c.57.82,1.12,1.65,1.67,2.47l.93,1.39,1.22,1.75c.6.86,1.21,1.71,1.8,2.57s1.11,1.61,1.63,2.44a21.56,21.56,0,0,1,1.47,2.55,5,5,0,0,1,.77,2.29c0,.13.11.26.14.4a1.19,1.19,0,0,1,.08.46c0,.32-.18.62-.21.94a6.28,6.28,0,0,1-.78,2.26,9.32,9.32,0,0,1-.8,1.31c-.68,1-1.38,1.89-2.08,2.84-.55.75-1.1,1.5-1.67,2.24s-1,1.24-1.51,1.87-1.08,1.48-1.62,2.22-1.25,1.7-1.89,2.53-1.12,1.4-1.68,2.1c-.76,1-1.53,1.91-2.29,2.88s-1.36,1.8-2,2.69-1.37,1.8-2.09,2.67c-1,1.25-2.05,2.5-3.15,3.68a14.55,14.55,0,0,1-2,1.72c-.72.54-1.49,1-2.26,1.49a5.26,5.26,0,0,1-.84.36,6.52,6.52,0,0,1-2.74.37,2.94,2.94,0,0,0-.4,0,4,4,0,0,1-2-.55,8.07,8.07,0,0,1-2.62-2,7.71,7.71,0,0,1-.77-1.29,6.28,6.28,0,0,1-.6-3.73,5.6,5.6,0,0,1,.57-2.24c.29-.6.42-1.28.7-1.89s.68-1.19,1-1.78l.82-1.39c.28-.48.56-.95.83-1.43.46-.82.89-1.65,1.35-2.47.36-.64.74-1.27,1.1-1.91.26-.45.49-.92.75-1.37s.58-1,.86-1.45c.14-.25.27-.5.4-.75.23-.44.44-.89.69-1.33s.59-1,.88-1.46l1.2-2a7.92,7.92,0,0,0,.59-1.1.72.72,0,0,0-.09-.62c-.92-1-1.89-1.93-2.83-2.9s-2.15-2.26-3.23-3.37-1.92-1.92-2.87-2.88A1.58,1.58,0,0,1,106.16,136.67Z"/></svg>