<svg xmlns="http://www.w3.org/2000/svg" viewBox="0 0 195 195"><title>icon_wheelchair</title><path d="M178,149.9l-28.32,11c-2.92-6.8-5.79-13.42-8.62-20.06-3.77-8.82-7.72-17.57-11.18-26.52-1.28-3.32-3-4.12-6.34-4.08-14.76.19-29.52.08-44.29.08H75.51C75,103.51,74.46,97.08,74,90.64Q72.23,65.39,70.5,40.13a10.09,10.09,0,0,0-.39-2.3c-3.39-10.84-.33-17,10.52-21h4.7c5.23,1.7,9.4,4.6,11.17,10.09A14.47,14.47,0,0,1,86.77,45c-.73.22-1.49.36-2.55.61l1.62,28.91h36.49V88H87.23l.63,9c8.2,0,16,0,23.82,0,7.39,0,14.78,0,22.16-.22,2.24-.06,3.3.62,4.18,2.72,6,14.18,12.2,28.3,18.33,42.43.44,1,.91,2,1.46,3.19l15.66-5.57,4.56,9.7Z"/><path d="M37,120.34c1.14-4.51,1.88-9.18,3.5-13.51,5-13.35,14.08-23.1,27.28-29.61.43,5.08,1,9.8,1.09,14.53,0,1-1.58,2.2-2.65,3C50,107.4,46.39,130.89,58.46,147.34c9.53,13,22.64,18.72,38.44,15.52,16.85-3.4,27.05-14.32,30.7-31.21.07-.31.15-.62.38-1.55,3.1,6.35,6,12.21,8.75,18.16.33.72-.36,2.1-.89,3-8.88,14.8-21.83,23.6-38.91,26.26a20.17,20.17,0,0,0-2.2.59H84.66a7.56,7.56,0,0,0-1.52-.57C64,174.71,50.1,164.48,42,147c-2.5-5.36-3.37-11.49-5-17.26Q37,125,37,120.34Z"/></svg>