<svg xmlns="http://www.w3.org/2000/svg" viewBox="0 0 195 195"><title>icon_unisex</title><path d="M124.79,64.07h-6.21c0,.36-.09.72-.09,1.08q0,52.94,0,105.89c0,2.88-.61,5.39-3,7.17a7.42,7.42,0,0,1-11.72-4.8,14.92,14.92,0,0,1-.15-2.38q0-29.88,0-59.76c0-.55,0-1.1,0-1.74H98.45c0,.46-.08.86-.08,1.27q-.08,29.6-.16,59.19c0,1.08,0,2.16,0,3.23a5.59,5.59,0,0,1-3.32,5.42,6.3,6.3,0,0,1-6.54-.56,5.42,5.42,0,0,1-2.3-4A17.31,17.31,0,0,1,86,172q0-22.43,0-44.86c0-1.86,0-1.86-1.81-1.86H69.47L86.53,63.89c-1.84,0-3.47-.08-5.1.06-.37,0-.85.74-1,1.23-1.57,5.15-3.09,10.32-4.62,15.48-1.75,5.88-3.49,11.76-5.27,17.63-.93,3.07-3.16,4.75-5.81,4.5-3.5-.33-5.62-3.39-4.77-7.16.55-2.41,1.36-4.77,2.08-7.15q4.54-15,9.11-30c2.17-7.12,6.74-11.65,14.2-12.94a23.3,23.3,0,0,1,3.92-.18c8.2,0,16.41-.07,24.61,0,3.68,0,7.43,0,10.88,1.66,6.51,3,10.18,8.29,10.32,15.35.28,13.92.11,27.84.06,41.76,0,3.89-2.93,6.34-6.41,5.53a5,5,0,0,1-3.79-4.24,11.86,11.86,0,0,1-.15-2.38q0-18.63,0-37.26C124.79,65.28,124.79,64.72,124.79,64.07Z"/><path d="M102.55,43.17a13.92,13.92,0,1,1,13.86-14A13.91,13.91,0,0,1,102.55,43.17Z"/></svg>