<svg xmlns="http://www.w3.org/2000/svg" viewBox="0 0 184.99 268.08"><title>s4a_logo</title><g style="isolation:isolate"><path d="M73.08,263.08l-1,0L70.78,263H70.6L70,263c-.5,0-1-.08-1.5-.14l-.83-.1-.81-.11-.26,0-.88-.15-.28-.05-.73-.14c-.33-.07-.75-.15-1.18-.26l-1.21-.3c-.46-.12-1-.27-1.53-.43L60,261l-.28-.1-.92-.32c-.55-.19-1.14-.42-1.72-.65l-.72-.3a44.69,44.69,0,0,1-6.26-3.28l-.55-.34c-.7-.45-1.33-.89-2-1.34l-1-.78-.42-.33c-.37-.28-.73-.58-1.09-.88s-.81-.67-1.21-1-.82-.73-1.26-1.15c-.2-.18-.39-.37-.58-.57s-.54-.53-.81-.8L41,249c-.38-.39-.74-.76-1.07-1.14-.85-.91-1.69-1.9-2.58-3-.33-.41-.65-.84-1-1.29a5,5,0,0,1-.15-5.77,34,34,0,0,0,5.13-16.15c-13.08-9-23.05-23.6-27.67-40.52a46.54,46.54,0,0,1-4.43-8.64c-.34-.87-.64-1.76-.91-2.65-8.59-18.19-.19-40.84,21-56.5a86.08,86.08,0,0,1,10.69-6.71L32.69,87.82a9,9,0,0,1-5.77-5.25A52.51,52.51,0,0,1,23.2,64.13s0-.23,0-.27a54.56,54.56,0,0,1,.58-6.67,9,9,0,0,1,4.59-6.52c.31-.17.69-.37,1.16-.58,3.83-1.76,13.11-4.91,22.95-8.24,4.34-1.47,8.83-3,12.63-4.33,1.7-.7,7.85-2,52.5-2,9.87,0,19.46.08,26.9.23L140.94,31a5,5,0,0,1,7.39-6.67l2.81,2.57,1.63-17.32a5,5,0,0,1,10,0l1.8,19.1,4.42-3.29a5,5,0,0,1,6.67,7.39l-3.46,3.78,3.79.72a5,5,0,0,1,0,9.82l-5.3,1,3.92,5.27A5,5,0,0,1,167.16,60l-2.81-2.58-1.63,17.32a5,5,0,0,1-9.45,1.77L141.92,141.4a46,46,0,0,1-5.09,21.78l6,28.73a5,5,0,0,1-.68,3.72l-.3.47a4,4,0,0,1-.23.36h0l-.53.83-.6,1c-.9,1.42-2.13,3.35-3.6,5.65l-3.65,5.64-1,1.54-1.76,2.69c-1.54,2.35-3.13,4.74-4.76,7.17l-.11.16-.09.15c-.24.35-.48.71-.71,1.06l-1.44,2.13-2.52,3.7-1,1.47-.73,1.05-.73,1-1.44,2.05-1.53,2.14L114,237.8l-.16.22-1.25,1.68-.25.34-1.09,1.45-.62.81-1,1.34c-.51.65-1,1.27-1.49,1.86l-.88,1.06-.26.31-.59.68c-.85,1-1.58,1.76-2.25,2.41a49.68,49.68,0,0,1-6.77,5.52c-.85.57-1.69,1.1-2.5,1.58l-.74.42-.26.15-.73.39a39.59,39.59,0,0,1-3.76,1.77l-.62.26-.92.35-.87.31c-1.16.41-2.34.76-3.52,1.06l-.23.06-.25.06-.5.12c-.38.09-.76.17-1.15.25l-.19,0c-.53.1-1,.2-1.57.27s-.92.14-1.41.2l-.47.05-1,.1-.61,0L75,263l-.39,0C74.11,263.07,73.59,263.08,73.08,263.08Z" style="fill:#fff"/><path d="M157.74,10l2.63,27.95,11.55-8.59L162.4,39.74,175,42.15l-13.14,2.5,8.69,11.67L160.31,47l-.39,4.13L159,60.57,157.74,74.3l-1.12-11.92-6.84,5.12L136.9,141.07c.37,6.86-1.54,14.28-5.33,21.4L138,192.93h0l0,.05-.28.44-.11.18-.06.09-.12.2-.46.72-.27.42v0l-.29.45c-.9,1.42-2.14,3.36-3.62,5.67l-.28.43-1,1.53-.48.74-.31.48-.37.56-.31.48-.59.91-.33.51-1,1.55-1.56,2.37-.2.31c-1.51,2.29-3.09,4.68-4.71,7.09l-.16.24c-.26.38-.52.77-.78,1.16l-2,2.94-1.93,2.82-1,1.47-.73,1.05-.73,1-1.4,2L111.35,233,110,234.85l-.14.2-1.22,1.65c-.45.6-.88,1.19-1.31,1.75l-.64.83-1,1.27q-.74.93-1.43,1.78l-1,1.24-.61.7c-.72.82-1.38,1.54-2,2.12a44.5,44.5,0,0,1-6.08,5c-.72.49-1.46,1-2.22,1.4l-.64.37-.25.14-.62.34a35.13,35.13,0,0,1-3.4,1.6l-.51.21-.81.31-.81.29A34.34,34.34,0,0,1,82,257h0l-.17,0-.46.11c-.34.09-.7.16-1,.23l-.16,0c-.45.09-.89.17-1.34.23s-.92.14-1.39.19l-.2,0c-.34,0-.7.08-1,.1l-.48,0-1,.07h-.21c-.47,0-.94,0-1.41,0h-.94l-1,0-.68,0c-.44,0-.88-.07-1.32-.12l-.78-.1-.77-.1-.2,0-.75-.12-.81-.15-1.09-.23-1.07-.26c-.46-.12-.92-.25-1.38-.39l-.75-.23-1-.36c-.52-.18-1-.38-1.54-.59l-.63-.26a39.66,39.66,0,0,1-5.6-2.94l-.53-.34c-.57-.37-1.13-.75-1.68-1.15l-.94-.7-.34-.27c-.34-.26-.68-.53-1-.81s-.71-.59-1.06-.91-.79-.7-1.18-1.08c-.16-.15-.32-.3-.48-.47s-.54-.53-.81-.8l-.06-.06c-.34-.34-.67-.7-1-1.05-.82-.88-1.6-1.8-2.35-2.76-.31-.39-.61-.78-.91-1.19,3.66-5.48,6-13.09,6.1-21.55-13.37-8.26-23.64-22.64-28.17-40a41,41,0,0,1-4.38-8.36c-.34-.86-.63-1.73-.88-2.62-7.66-15.69-.79-35.85,19.32-50.69A82.41,82.41,0,0,1,46.4,109L36.24,83.19h-.88a4.08,4.08,0,0,1-3.81-2.5A47.81,47.81,0,0,1,28.2,64v0a49.36,49.36,0,0,1,.53-6.06,3.93,3.93,0,0,1,2-2.87c.23-.13.53-.28.89-.45C36.91,52.18,55,46.36,67,42.15c2.3-1.15,27.27-1.62,50.63-1.62,11.19,0,22,.11,29.78.3l6.24-1.19L144.95,28l10.23,9.36L157.74,10m0-10h0a10,10,0,0,0-10,9.06l-.86,9.1A10,10,0,0,0,135.3,30.62c-5.49-.06-11.54-.09-17.7-.09-45.31,0-51.82,1.23-54.42,2.35-3.73,1.3-8.09,2.78-12.32,4.22-12,4.08-19.64,6.69-23.4,8.42l-.07,0c-.56.26-1,.49-1.43.72a14,14,0,0,0-7.13,10.1v.07a59.55,59.55,0,0,0-.63,7.29q0,.12,0,.25c0,.08,0,.19,0,.27a57.47,57.47,0,0,0,4.08,20.2,13.89,13.89,0,0,0,6.53,7.18l5,12.71q-3.86,2.29-7.41,4.91C15.1,117.6,7,127.83,2.9,138.86s-3.84,22.71.76,32.71c.28.9.59,1.79.93,2.68a51.8,51.8,0,0,0,4.47,8.89c4.71,16.67,14.35,31.17,27,40.78a27.75,27.75,0,0,1-4,11,10,10,0,0,0,.3,11.53c.36.48.72,1,1.09,1.42.93,1.18,1.85,2.26,2.78,3.27.42.47.83.9,1.16,1.24l.27.27.79.79c.22.22.44.44.68.66.44.42.91.85,1.4,1.27s.88.77,1.34,1.14.72.59,1.15.92l.53.41,1.12.83c.8.57,1.47,1,2.13,1.46l.1.06.1.07.46.29a49.82,49.82,0,0,0,6.93,3.63l.74.31.06,0c.69.28,1.32.52,1.93.74l1,.34.2.07.15,0,.94.3c.6.18,1.17.34,1.72.48l1.35.33,1.3.28.82.16.17,0,.12,0,1,.17h0l.27,0,.86.12.91.11c.52.06,1.07.11,1.67.15l.7,0h.12c.49,0,1,.05,1.47.06l1.15,0c.62,0,1.16,0,1.68,0l.53,0,1.09-.07.74-.06,1.07-.1.63-.07c.48-.06,1-.13,1.55-.22s1.11-.18,1.75-.31l.28-.06,1.21-.26.54-.13.32-.08.35-.09c1.28-.32,2.57-.71,3.83-1.16l.93-.33,1.08-.41.67-.28a45.25,45.25,0,0,0,4.19-2l.78-.42.34-.19.79-.45c.9-.53,1.84-1.12,2.77-1.75a54.64,54.64,0,0,0,7.45-6.08c.78-.76,1.6-1.64,2.53-2.7l.59-.68.17-.2.18-.21.92-1.11c.48-.59,1-1.23,1.52-1.9l1.07-1.38,0-.05.59-.77c.39-.51.77-1,1.16-1.54l.23-.31.94-1.26.32-.43.21-.29,1.35-1.86.93-1.31.61-.85,1.47-2.09,0,0,.65-.93.08-.11.33-.47.41-.59,1-1.39L125,231l1.94-2.83.58-.86,1.45-2.14,0-.07c.22-.33.43-.65.65-1l.18-.27.07-.1c1.51-2.26,3.07-4.6,4.75-7.16l.06-.09.09-.14.09-.13,1.51-2.3.08-.13.94-1.44.08-.13.26-.4,0-.06.53-.82.09-.14.07-.1.24-.37.13-.2L139,210l.16-.24.19-.29.08-.12.22-.35.18-.28.07-.11.56-.87.43-.66.17-.26,0,0,.11-.17c1.46-2.28,2.69-4.21,3.59-5.63l.3-.47,0-.07h0l.08-.12.2-.32.51-.81h0v0l.26-.42.18-.29q.22-.35.41-.69a10,10,0,0,0,1-6.87l-5.7-27.08a50.52,50.52,0,0,0,4.86-22L157,84.27l.75,0h0a10,10,0,0,0,10-9.07l.85-9.1a10,10,0,0,0,10.6-14.89A10,10,0,0,0,180.78,34a10,10,0,0,0-12.06-14.12l-1-10.81a10,10,0,0,0-10-9.06Z"/><path d="M127.37,175.37a.73.73,0,0,1-.42-.13l-54.9-38.06a.73.73,0,0,1-.31-.59L71,73.63a.73.73,0,0,1,.59-.73l80.52-16.1h.14a.73.73,0,0,1,.72.86L137.6,145.48l0,.1-9.52,29.28a.73.73,0,0,1-.7.51Z" style="fill:#52fbff"/><path d="M152.25,57.52l-15.37,87.84-9.52,29.28-54.9-38.06-.73-62.95,80.52-16.1m0-1.46-.29,0L71.45,72.19a1.46,1.46,0,0,0-1.18,1.45L71,136.59a1.46,1.46,0,0,0,.63,1.19l54.9,38.06a1.46,1.46,0,0,0,2.23-.75l9.52-29.28a1.46,1.46,0,0,0,0-.2l15.37-87.84a1.46,1.46,0,0,0-1.44-1.72Zm0,2.93h0Z"/><path d="M63.27,150.84a.73.73,0,0,1-.63-.46L35.55,81.58a.73.73,0,0,1,.59-1l90-11h.09a.73.73,0,0,1,.73.8l-8.05,83.44a.73.73,0,0,1-.73.66Z" style="fill:#52fbff"/><path d="M126.27,70.33h0m0,0-8.05,83.44-54.9-3.66L36.24,81.31l90-11m0-1.46h-.2l-90,11a1.46,1.46,0,0,0-1.18,2L62,150.65a1.46,1.46,0,0,0,1.26.92l54.9,3.66h.1a1.46,1.46,0,0,0,1.46-1.32l8-83.36a1.46,1.46,0,0,0-1.44-1.69h0Zm0,2.93h0Z"/><polygon points="142 65.2 128.2 154.44 123.83 150.56 132.69 65.99 142 65.2" style="fill:#fff"/><polygon points="117.85 78.38 114.19 129.62 102.84 112.78 111.26 78.38 117.85 78.38" style="fill:#27a0a0;opacity:0.56;mix-blend-mode:multiply"/><path d="M126.5,85.09c-8.67-1.09-24.92-1.64-48.38-1.64-7.92,0-16.44.06-25.32.19-5.35.07-9.77.15-12.71.21l-4,.09a4.85,4.85,0,0,1-4.5-3A48.25,48.25,0,0,1,28.2,64a50.33,50.33,0,0,1,.53-6.22,4.67,4.67,0,0,1,2.43-3.41c.23-.13.54-.28.91-.46,3.6-1.65,13.21-4.91,22.5-8.06,4.43-1.5,9-3.06,12.89-4.42,3.13-1.58,42.81-1.66,50.73-1.66,16.7,0,31.67.24,38.14.6A5,5,0,0,1,161,44.78a64.83,64.83,0,0,1,.4,7.25,63.57,63.57,0,0,1-.54,8.36.73.73,0,0,1-.29.49L146.18,71.63,127.32,84.78l-.09.05-.19.09-.24.11a.73.73,0,0,1-.27.05Z" style="fill:#52fbff"/><path d="M118.2,40.53c16.08,0,31.42.22,38.1.6a4.23,4.23,0,0,1,4,3.73,64.12,64.12,0,0,1,.4,7.17,62.9,62.9,0,0,1-.53,8.26L145.75,71l-18,12.53-.86.6-.18.08-.2.1h0c-10.2-1.29-29.95-1.64-48.39-1.64-9.22,0-18.12.09-25.33.19-5.35.07-9.77.15-12.71.21l-4,.09a4.08,4.08,0,0,1-3.81-2.5A47.82,47.82,0,0,1,28.93,64v0a49.36,49.36,0,0,1,.53-6.06,3.93,3.93,0,0,1,2-2.87c.23-.13.53-.28.89-.45,5.26-2.42,23.31-8.23,35.32-12.45C70,41,94.88,40.53,118.2,40.53m0-1.46v0h0c-14.13,0-47.1.17-51,1.71-3.86,1.36-8.43,2.9-12.85,4.4-9.74,3.3-18.94,6.42-22.57,8.09-.42.2-.73.36-1,.5A5.38,5.38,0,0,0,28,57.69a51,51,0,0,0-.54,6.25V64a49,49,0,0,0,3.47,17.24,5.51,5.51,0,0,0,5.16,3.42l4-.09c2.82-.06,7.31-.14,12.7-.21,8.88-.13,17.4-.19,25.31-.19,23.43,0,39.65.55,48.2,1.63h.18a1.54,1.54,0,0,0,.56-.1l.28-.13.21-.1.18-.11.86-.6,18-12.53L161,61.47a1.46,1.46,0,0,0,.57-1,64.35,64.35,0,0,0,.55-8.46,65.62,65.62,0,0,0-.4-7.33,5.68,5.68,0,0,0-5.35-5c-6.48-.37-21.47-.6-38.18-.6Z"/><path d="M28.73,57.92a3.9,3.9,0,0,1,3.85-3.32s16.47-1.1,42.09-1.1,48.57,1.1,48.57,1.1" style="fill:none;stroke:#000;stroke-linecap:round;stroke-linejoin:round;stroke-width:1.4639371556071565px"/><path d="M128.88,61.78a48.51,48.51,0,0,1,.07,19.71,3.9,3.9,0,0,1-3.81,3.12S103.94,83.5,82,83.5" style="fill:none;stroke:#000;stroke-linecap:round;stroke-linejoin:round;stroke-width:1.4639371556071565px"/><path d="M147.22,48.61c-4,2.42-11.74,7.25-16.54,11.48a.48.48,0,0,1-.79-.27,26.11,26.11,0,0,0-.7-2.57,2.36,2.36,0,0,0-1.58-1.54c-.19-.05-.35-.17,0-.31l10.45-3.83s8.26-3,9-3.29S147.93,48.18,147.22,48.61Z" style="fill:#fff"/><path d="M73.81,258.81h-.93c-12.41-.31-24.19-6.81-32.36-17.85a.73.73,0,0,1,0-.84c3.86-5.79,6-13.57,6-21.92,0-13.25-5.67-25.21-13.78-29.07a.73.73,0,0,1-.38-.88c2.63-8.36,19.59-18.5,50.43-30.13,22.83-8.61,45.2-14.91,45.43-15l.2,0a.73.73,0,0,1,.72.58l10.34,49.1a.73.73,0,0,1-.1.54c-1.13,1.8-27.75,44.16-37.42,53.58a45.33,45.33,0,0,1-6.18,5A39.09,39.09,0,0,1,73.81,258.81Z" style="fill:#52fbff"/><path d="M128.38,143.83l10.34,49.1s-27.59,44-37.31,53.44a44.5,44.5,0,0,1-6.08,5,38.2,38.2,0,0,1-21.51,6.74h-.94c-12.66-.31-24-7-31.77-17.55,3.77-5.65,6.11-13.56,6.11-22.33,0-14-6-25.82-14.19-29.73,6.16-19.62,95.35-44.62,95.35-44.62m0-1.46a1.46,1.46,0,0,0-.4.05c-.22.06-22.62,6.37-45.49,15-31.06,11.72-48.17,22-50.87,30.6a1.46,1.46,0,0,0,.77,1.76c7.87,3.75,13.36,15.43,13.36,28.41,0,8.2-2.08,15.84-5.87,21.51a1.46,1.46,0,0,0,0,1.68c8.3,11.22,20.3,17.83,32.91,18.15l1,0a39.83,39.83,0,0,0,22.33-7,46.09,46.09,0,0,0,6.28-5.13c9.73-9.48,36.4-51.91,37.53-53.71a1.46,1.46,0,0,0,.19-1.08l-10.34-49.1a1.46,1.46,0,0,0-1.43-1.16Z"/><path d="M73.81,258.81h-.93c-1.11,0-2.12-.1-3.12-.21a37.77,37.77,0,0,1-8.79-2,44.11,44.11,0,0,1-20.45-15.62.73.73,0,0,1,0-.84c3.86-5.79,6-13.57,6-21.92,0-13.25-5.67-25.21-13.78-29.07a.73.73,0,0,1-.38-.88c2.63-8.36,19.59-18.5,50.43-30.13,22.83-8.61,45.2-14.91,45.43-15l.2,0a.73.73,0,0,1,.72.58l10.34,49.1a.73.73,0,0,1-.1.54c-.24.39-24.47,38.94-35.4,51.42-.76.86-1.43,1.59-2,2.16a45.33,45.33,0,0,1-6.18,5A39.76,39.76,0,0,1,83,257.66l-.09,0A37.88,37.88,0,0,1,73.81,258.81Z" style="fill:#52fbff"/><path d="M128.38,143.83l10.34,49.1s-24.31,38.74-35.33,51.33c-.72.82-1.38,1.54-2,2.12a44.5,44.5,0,0,1-6.08,5A39.05,39.05,0,0,1,82.76,257h0a37,37,0,0,1-9,1.1h-.94c-1,0-2-.1-3-.2a36.92,36.92,0,0,1-8.62-2A43.47,43.47,0,0,1,41.1,240.51c3.77-5.65,6.11-13.56,6.11-22.33,0-14-6-25.82-14.19-29.73,6.16-19.62,95.35-44.62,95.35-44.62m0-1.46a1.46,1.46,0,0,0-.4.05c-.22.06-22.62,6.37-45.49,15-31.06,11.72-48.17,22-50.87,30.6a1.46,1.46,0,0,0,.77,1.76c7.87,3.75,13.36,15.43,13.36,28.41,0,8.2-2.08,15.84-5.87,21.51a1.46,1.46,0,0,0,0,1.68,44.84,44.84,0,0,0,20.79,15.87,38.48,38.48,0,0,0,9,2.06c1,.11,2,.18,3.15.21l1,0a38.59,38.59,0,0,0,9.31-1.14l.14,0a40.5,40.5,0,0,0,12.89-5.81,46.09,46.09,0,0,0,6.28-5.13c.6-.58,1.29-1.32,2.06-2.2,11-12.53,34.48-49.93,35.47-51.51a1.46,1.46,0,0,0,.19-1.08l-10.34-49.1a1.46,1.46,0,0,0-1.43-1.16Z"/><path d="M103.38,244.26c-.72.82-1.38,1.54-2,2.12a44.5,44.5,0,0,1-6.08,5A39.05,39.05,0,0,1,82.76,257c-.26-32.08-3.18-45.34-8.21-57.25,2.95-3.5,10.14-4.22,16.21,8.94C95.09,218,101.47,231,103.38,244.26Z" style="fill:#fff"/><path d="M69.83,257.86a36.92,36.92,0,0,1-8.62-2c7.31-20.83,7.61-38.7,8.38-47.42L70.77,205a17.69,17.69,0,0,1,2.69-2.58C75.79,214.82,75.9,228,69.83,257.86Z" style="fill:#27a0a0;opacity:0.56;mix-blend-mode:multiply"/><path d="M73.57,227.34c-31.88,0-57.83-30.7-57.83-68.44,0-13.15,7.33-20.11,21.2-20.11,15.72,0,35.32,8.86,38.08,10.14,2.67-1.31,21.27-10.14,36.19-10.14,13.2,0,20.18,7,20.18,20.11C131.39,196.63,105.45,227.34,73.57,227.34Z" style="fill:#52fbff"/><path d="M111.21,139.52c10.62,0,19.45,4.48,19.45,19.37,0,37.39-25.56,67.71-57.09,67.71S16.47,196.29,16.47,158.9c0-14.89,9.29-19.37,20.47-19.37,16.89,0,38.09,10.23,38.09,10.23s20.14-10.23,36.18-10.23m0-1.46h0c-14.78,0-32.55,8.28-36.2,10.06-3.77-1.75-22.51-10.06-38.07-10.06C22.59,138.06,15,145.26,15,158.9c0,38.14,26.27,69.17,58.56,69.17s58.56-31,58.56-69.17c0-13.63-7.23-20.84-20.91-20.84Z"/><path d="M73.93,226.6h-.37a46.91,46.91,0,0,1-5.09-.27C45.88,216,35.77,192.48,33.67,175,31.48,156.7,49,162.56,52,188.18s13.91,34.4,21.23,38.06Z" style="fill:#27a0a0;opacity:0.56;mix-blend-mode:multiply"/><path d="M99.65,219.15A51.35,51.35,0,0,1,90,223.76c6.51-6.71,12-18,10.33-38.52-2.93-35.13,16.1-22.69,16.1-22.69A60.68,60.68,0,0,1,99.65,219.15Z" style="fill:#fff"/><path d="M63,198.88c-14.24,0-39.54-3.64-49-28-5.85-15,1.53-32.81,18.8-45.31a83.58,83.58,0,0,1,48-15.28c1.28,0,2.56,0,3.81.1,8.7.44,38,6.65,42.48,9.85,7.39,5.25,11.31,13,11.35,22.32.06,14.58-9.56,31-24.53,41.82C101.9,193.05,81.44,198.88,63,198.88Z" style="fill:#52fbff"/><path d="M80.76,111q1.9,0,3.78.09c8.63.44,37.8,6.67,42.09,9.72,20.06,14.25,11.09,45.4-13.18,62.95C102.6,191.64,82.51,198.15,63,198.15c-20.52,0-40.42-7.19-48.34-27.54-5.48-14.07.69-31.53,18.55-44.45A83,83,0,0,1,80.76,111m0-1.46h0A84.33,84.33,0,0,0,32.33,125c-17.55,12.7-25,30.82-19.05,46.17,7.15,18.36,24.8,28.48,49.71,28.48,18.6,0,39.23-5.89,51.33-14.65,15.15-11,24.89-27.61,24.83-42.42,0-9.6-4.07-17.52-11.66-22.91-3-2.12-14.94-5-19.95-6.08-9.51-2.13-18.72-3.7-22.92-3.91-1.27-.06-2.56-.1-3.85-.1Z"/><path d="M113.12,178.54c-16.55,12-54.92,20.8-79.21,7.45,22.35,10.45,55.81,6.22,79.21-11,18-13.26,25.37-30.79,21.26-45.57a25.11,25.11,0,0,1,2.42,6.15C138,149.95,128.84,167.15,113.12,178.54Z" style="fill:#fcfcfc"/><path d="M60.21,191.72c-14,0-26.7-3.64-35.82-10.25C15.1,174.74,10,165.27,9.91,154.81c-.06-13.56,8.21-27.47,22.69-38.15A89.19,89.19,0,0,1,84.53,99.8c14,0,26.7,3.64,35.82,10.25,9.29,6.73,14.43,16.19,14.47,26.66.06,13.56-8.21,27.47-22.69,38.15A89.19,89.19,0,0,1,60.21,191.72Z" style="fill:#52fbff"/><path d="M84.53,100.6c13.39,0,26,3.31,35.35,10.1,21.7,15.72,18,44.16-8.22,63.52a88.54,88.54,0,0,1-51.46,16.7c-13.39,0-26-3.31-35.35-10.1-21.7-15.72-18-44.16,8.22-63.52a88.55,88.55,0,0,1,51.46-16.7m0-1.6v0a90,90,0,0,0-52.41,17c-14.69,10.84-23.08,25-23,38.8,0,10.72,5.3,20.42,14.8,27.3,9.26,6.71,22.15,10.4,36.29,10.4a90,90,0,0,0,52.4-17c14.69-10.84,23.08-25,23-38.8,0-10.72-5.3-20.42-14.8-27.3C111.56,102.7,98.68,99,84.54,99Z"/><path d="M60.2,191.71c-14,0-26.69-3.64-35.82-10.25C15.1,174.74,10,165.27,9.91,154.81c-.06-13.56,8.21-27.47,22.69-38.15A89.21,89.21,0,0,1,84.54,99.8c14,0,26.69,3.64,35.82,10.25A35.88,35.88,0,0,1,131.08,122a30.68,30.68,0,0,1,2.44,5.83c4.75,15.79-3.44,33.82-21.38,47.06A89.21,89.21,0,0,1,60.2,191.71Z" style="fill:#52fbff"/><path d="M84.54,100.6c13.39,0,26,3.3,35.35,10.1a35.09,35.09,0,0,1,10.48,11.66,29.74,29.74,0,0,1,2.38,5.68c4.49,14.9-2.86,32.73-21.09,46.18a88.56,88.56,0,0,1-51.46,16.7c-13.39,0-26-3.3-35.35-10.1-21.7-15.72-18-44.16,8.23-63.52a88.56,88.56,0,0,1,51.46-16.7m0-1.6v0h0a90,90,0,0,0-52.41,17c-14.69,10.84-23.07,25-23,38.8,0,10.73,5.3,20.42,14.8,27.31,9.26,6.71,22.15,10.4,36.29,10.4a90,90,0,0,0,52.41-17c18.22-13.44,26.52-31.81,21.67-47.93a31.51,31.51,0,0,0-2.51-6,36.67,36.67,0,0,0-10.95-12.19C111.57,102.7,98.68,99,84.54,99Z"/><path d="M113.24,166.61c-23.44,18.8-59,24-81.2,12.34,23.6,6.83,55.27.28,77.15-17.33,14.76-11.89,21.92-26.3,21.18-39.26a29.74,29.74,0,0,1,2.38,5.68C134.44,140.59,127.83,154.92,113.24,166.61Z" style="fill:#fff"/><path d="M89.94,185.68c-23,8.21-48.84,6.9-65.09-4.86-21.21-15.37-18.17-42.9,6.51-62.22C9.14,140.86,7.94,168,29.93,181.82,45.22,191.43,68,192.29,89.94,185.68Z" style="fill:#27a0a0;opacity:0.56;mix-blend-mode:multiply"/><path d="M52.79,82.9c-5.35.07-9.77.15-12.71.21-6.18-11.23-2.36-28.8-2.36-28.8h0l34-11.06S61.26,48.87,52.45,53.78L50.33,55C45.75,64.93,50.3,77.42,52.79,82.9Z" style="fill:#27a0a0;opacity:0.56;mix-blend-mode:multiply"/><polygon points="162.58 44.65 171.27 56.33 161.05 46.96 158.47 74.29 155.85 46.35 144.3 54.94 153.81 44.55 141.22 42.15 154.37 39.64 145.68 27.97 155.9 37.33 158.47 10 161.1 37.94 172.65 29.35 163.13 39.74 175.72 42.15 162.58 44.65" style="fill:#fff"/></g></svg>